<svg xmlns="http://www.w3.org/2000/svg" xmlns:xlink="http://www.w3.org/1999/xlink" viewBox="0 0 554 588.54"><defs><style>.a{fill:none;}.b{clip-path:url(#a);}.c{fill:#0071bc;}.d,.e{fill:#fff;}.e{stroke:#0071bc;stroke-miterlimit:10;stroke-width:13px;}</style><clipPath id="a" transform="translate(-655 -251)"><circle class="a" cx="932" cy="528" r="277"/></clipPath></defs><g class="b"><path class="c" d="M932,796.5a268.49,268.49,0,1,1,189.86-78.64A266.75,266.75,0,0,1,932,796.5Z" transform="translate(-655 -251)"/><path class="c" d="M932,268a259.2,259.2,0,1,1-101.2,20.43A258.22,258.22,0,0,1,932,268m0-17c-153,0-277,124-277,277S779,805,932,805s277-124,277-277S1085,251,932,251Z" transform="translate(-655 -251)"/><path class="d" d="M666,691.54S739,580,935.89,578,1198,671.1,1198,671.1,963.64,1036.07,666,691.54Z" transform="translate(-655 -251)"/><ellipse class="e" cx="277.5" cy="246" rx="102.78" ry="121"/></g><path class="c" d="M932,268a259.2,259.2,0,1,1-101.2,20.43A258.22,258.22,0,0,1,932,268m0-17c-153,0-277,124-277,277S779,805,932,805s277-124,277-277S1085,251,932,251Z" transform="translate(-655 -251)"/></svg>